<svg xmlns="http://www.w3.org/2000/svg" width="232" height="115" viewBox="0 0 232 115" fill="none"><rect x="1.0737" y="1.23581" width="97.4461" height="19.8565" rx="9.92824" stroke="#D6F503" stroke-width="1.1474"></rect><path d="M18.1393 7.35896V15.1641H17.1129V9.34407L14.5187 15.1641H13.7969L11.1914 9.33279V15.1641H10.165V7.35896H11.2704L14.1578 13.8106L17.0452 7.35896H18.1393ZM24.8653 13.4158H21.4365L20.8049 15.1641H19.7221L22.5644 7.34768H23.7487L26.5797 15.1641H25.497L24.8653 13.4158ZM24.5721 12.5812L23.1509 8.61093L21.7298 12.5812H24.5721ZM30.6495 15.243C30.1307 15.243 29.6645 15.1528 29.2509 14.9723C28.8449 14.7843 28.5253 14.5287 28.2922 14.2053C28.0591 13.8745 27.9388 13.4948 27.9313 13.0662H29.0254C29.063 13.4346 29.2133 13.7467 29.4765 14.0023C29.7472 14.2505 30.1382 14.3745 30.6495 14.3745C31.1383 14.3745 31.5218 14.2542 31.8 14.0136C32.0857 13.7655 32.2286 13.4496 32.2286 13.0662C32.2286 12.7654 32.1459 12.521 31.9805 12.333C31.815 12.145 31.6083 12.0022 31.3601 11.9044C31.112 11.8067 30.7774 11.7014 30.3563 11.5886C29.8375 11.4533 29.4201 11.3179 29.1043 11.1826C28.796 11.0472 28.5291 10.8367 28.3035 10.5509C28.0854 10.2577 27.9764 9.86667 27.9764 9.37791C27.9764 8.94931 28.0854 8.56958 28.3035 8.23873C28.5216 7.90787 28.8261 7.65221 29.2171 7.47175C29.6156 7.29129 30.0706 7.20105 30.5819 7.20105C31.3188 7.20105 31.9203 7.38528 32.3865 7.75373C32.8602 8.12218 33.1272 8.61093 33.1873 9.22H32.0594C32.0218 8.91923 31.8639 8.65605 31.5857 8.43047C31.3075 8.19737 30.939 8.08082 30.4804 8.08082C30.0518 8.08082 29.7021 8.19361 29.4314 8.41919C29.1607 8.63725 29.0254 8.94555 29.0254 9.34407C29.0254 9.62981 29.1043 9.86291 29.2622 10.0434C29.4276 10.2238 29.6269 10.3629 29.86 10.4607C30.1006 10.5509 30.4352 10.6562 30.8638 10.7765C31.3827 10.9194 31.8 11.0622 32.1158 11.2051C32.4316 11.3405 32.7023 11.5548 32.9279 11.848C33.1535 12.1338 33.2663 12.5248 33.2663 13.021C33.2663 13.4045 33.1648 13.7655 32.9617 14.1038C32.7587 14.4422 32.458 14.7167 32.0594 14.9272C31.6609 15.1377 31.1909 15.243 30.6495 15.243ZM39.9538 7.30256V8.13721H37.8108V15.1641H36.7844V8.13721H34.6301V7.30256H39.9538ZM42.582 8.13721V10.7652H45.4469V11.6112H42.582V14.3181H45.7852V15.1641H41.5556V7.29129H45.7852V8.13721H42.582ZM51.8161 15.1641L49.9438 11.9495H48.7031V15.1641H47.6767V7.30256H50.2145C50.8085 7.30256 51.3085 7.40408 51.7146 7.6071C52.1281 7.81012 52.4364 8.08458 52.6395 8.43047C52.8425 8.77636 52.944 9.17113 52.944 9.61477C52.944 10.1562 52.7861 10.6336 52.4703 11.0472C52.162 11.4608 51.6958 11.7352 51.0717 11.8706L53.0455 15.1641H51.8161ZM48.7031 11.1262H50.2145C50.7709 11.1262 51.1882 10.9908 51.4664 10.7201C51.7447 10.4419 51.8838 10.0735 51.8838 9.61477C51.8838 9.14857 51.7447 8.78764 51.4664 8.53198C51.1957 8.27632 50.7784 8.14849 50.2145 8.14849H48.7031V11.1262ZM54.4937 11.2277C54.4937 10.4607 54.6667 9.77268 55.0126 9.16361C55.3584 8.54702 55.8284 8.06578 56.4224 7.71989C57.024 7.374 57.6895 7.20105 58.4188 7.20105C59.276 7.20105 60.0242 7.40784 60.6634 7.8214C61.3025 8.23497 61.7687 8.82148 62.062 9.58093H60.8325C60.6145 9.10721 60.2987 8.74252 59.8851 8.48686C59.4791 8.23121 58.9903 8.10338 58.4188 8.10338C57.8699 8.10338 57.3774 8.23121 56.9413 8.48686C56.5052 8.74252 56.163 9.10721 55.9149 9.58093C55.6667 10.0471 55.5427 10.596 55.5427 11.2277C55.5427 11.8518 55.6667 12.4007 55.9149 12.8744C56.163 13.3406 56.5052 13.7015 56.9413 13.9572C57.3774 14.2129 57.8699 14.3407 58.4188 14.3407C58.9903 14.3407 59.4791 14.2166 59.8851 13.9685C60.2987 13.7128 60.6145 13.3481 60.8325 12.8744H62.062C61.7687 13.6264 61.3025 14.2091 60.6634 14.6227C60.0242 15.0287 59.276 15.2317 58.4188 15.2317C57.6895 15.2317 57.024 15.0626 56.4224 14.7242C55.8284 14.3783 55.3584 13.9008 55.0126 13.2917C54.6667 12.6827 54.4937 11.9946 54.4937 11.2277ZM64.9546 14.3294H67.7067V15.1641H63.9282V7.30256H64.9546V14.3294ZM73.782 13.4158H70.3532L69.7216 15.1641H68.6388L71.4811 7.34768H72.6654L75.4965 15.1641H74.4137L73.782 13.4158ZM73.4888 12.5812L72.0676 8.61093L70.6465 12.5812H73.4888ZM79.5663 15.243C79.0474 15.243 78.5812 15.1528 78.1676 14.9723C77.7616 14.7843 77.442 14.5287 77.2089 14.2053C76.9758 13.8745 76.8555 13.4948 76.848 13.0662H77.9421C77.9797 13.4346 78.1301 13.7467 78.3932 14.0023C78.6639 14.2505 79.0549 14.3745 79.5663 14.3745C80.055 14.3745 80.4385 14.2542 80.7167 14.0136C81.0024 13.7655 81.1453 13.4496 81.1453 13.0662C81.1453 12.7654 81.0626 12.521 80.8972 12.333C80.7318 12.145 80.525 12.0022 80.2768 11.9044C80.0287 11.8067 79.6941 11.7014 79.273 11.5886C78.7542 11.4533 78.3368 11.3179 78.021 11.1826C77.7127 11.0472 77.4458 10.8367 77.2202 10.5509C77.0021 10.2577 76.8931 9.86667 76.8931 9.37791C76.8931 8.94931 77.0021 8.56958 77.2202 8.23873C77.4383 7.90787 77.7428 7.65221 78.1338 7.47175C78.5323 7.29129 78.9873 7.20105 79.4986 7.20105C80.2355 7.20105 80.837 7.38528 81.3032 7.75373C81.7769 8.12218 82.0439 8.61093 82.104 9.22H80.9761C80.9385 8.91923 80.7806 8.65605 80.5024 8.43047C80.2242 8.19737 79.8557 8.08082 79.3971 8.08082C78.9685 8.08082 78.6188 8.19361 78.3481 8.41919C78.0774 8.63725 77.9421 8.94555 77.9421 9.34407C77.9421 9.62981 78.021 9.86291 78.1789 10.0434C78.3444 10.2238 78.5436 10.3629 78.7767 10.4607C79.0173 10.5509 79.3519 10.6562 79.7806 10.7765C80.2994 10.9194 80.7167 11.0622 81.0325 11.2051C81.3483 11.3405 81.619 11.5548 81.8446 11.848C82.0702 12.1338 82.183 12.5248 82.183 13.021C82.183 13.4045 82.0815 13.7655 81.8785 14.1038C81.6754 14.4422 81.3747 14.7167 80.9761 14.9272C80.5776 15.1377 80.1076 15.243 79.5663 15.243ZM86.5245 15.243C86.0056 15.243 85.5394 15.1528 85.1259 14.9723C84.7198 14.7843 84.4002 14.5287 84.1671 14.2053C83.934 13.8745 83.8137 13.4948 83.8062 13.0662H84.9003C84.9379 13.4346 85.0883 13.7467 85.3514 14.0023C85.6221 14.2505 86.0131 14.3745 86.5245 14.3745C87.0132 14.3745 87.3967 14.2542 87.6749 14.0136C87.9607 13.7655 88.1035 13.4496 88.1035 13.0662C88.1035 12.7654 88.0208 12.521 87.8554 12.333C87.69 12.145 87.4832 12.0022 87.235 11.9044C86.9869 11.8067 86.6523 11.7014 86.2312 11.5886C85.7124 11.4533 85.295 11.3179 84.9792 11.1826C84.6709 11.0472 84.404 10.8367 84.1784 10.5509C83.9604 10.2577 83.8513 9.86667 83.8513 9.37791C83.8513 8.94931 83.9604 8.56958 84.1784 8.23873C84.3965 7.90787 84.701 7.65221 85.092 7.47175C85.4905 7.29129 85.9455 7.20105 86.4568 7.20105C87.1937 7.20105 87.7952 7.38528 88.2614 7.75373C88.7352 8.12218 89.0021 8.61093 89.0622 9.22H87.9343C87.8967 8.91923 87.7388 8.65605 87.4606 8.43047C87.1824 8.19737 86.814 8.08082 86.3553 8.08082C85.9267 8.08082 85.577 8.19361 85.3063 8.41919C85.0356 8.63725 84.9003 8.94555 84.9003 9.34407C84.9003 9.62981 84.9792 9.86291 85.1371 10.0434C85.3026 10.2238 85.5018 10.3629 85.7349 10.4607C85.9755 10.5509 86.3102 10.6562 86.7388 10.7765C87.2576 10.9194 87.6749 11.0622 87.9907 11.2051C88.3065 11.3405 88.5772 11.5548 88.8028 11.848C89.0284 12.1338 89.1412 12.5248 89.1412 13.021C89.1412 13.4045 89.0397 13.7655 88.8367 14.1038C88.6336 14.4422 88.3329 14.7167 87.9343 14.9272C87.5358 15.1377 87.0659 15.243 86.5245 15.243Z" fill="#D6F503"></path><path d="M17.875 44.2357C19.2943 44.5562 20.416 45.2658 21.2401 46.3646C22.0871 47.4406 22.5106 48.6767 22.5106 50.0731C22.5106 52.1334 21.8009 53.7473 20.3816 54.9148C18.9623 56.0823 16.9707 56.666 14.4068 56.666H2.42292V32.4578H14.0291C16.5015 32.4578 18.4358 33.0072 19.8322 34.106C21.2515 35.2048 21.9612 36.75 21.9612 38.7416C21.9612 40.1609 21.5835 41.3513 20.828 42.3128C20.0955 43.2513 19.1111 43.8923 17.875 44.2357ZM9.15315 42.0724H12.5526C14.2466 42.0724 15.0936 41.3742 15.0936 39.9778C15.0936 38.5356 14.2466 37.8145 12.5526 37.8145H9.15315V42.0724ZM13.0677 51.2406C14.7617 51.2406 15.6087 50.531 15.6087 49.1117C15.6087 48.3791 15.3798 47.8183 14.9219 47.4291C14.487 47.04 13.8574 46.8454 13.0333 46.8454H9.15315V51.2406H13.0677ZM32.8771 37.8489V41.7977H40.6032V46.9141H32.8771V51.275H41.6333V56.666H26.1469V32.4578H41.6333V37.8489H32.8771ZM54.7796 56.9064C51.9639 56.9064 49.6518 56.2425 47.8434 54.9148C46.0349 53.5642 45.062 51.6412 44.9246 49.146H52.1013C52.1699 49.993 52.4218 50.6111 52.8567 51.0003C53.2916 51.3894 53.8525 51.584 54.5393 51.584C55.1573 51.584 55.661 51.4352 56.0501 51.1376C56.4622 50.8171 56.6682 50.3822 56.6682 49.8328C56.6682 49.1231 56.3363 48.5737 55.6724 48.1846C55.0085 47.7954 53.9326 47.3604 52.4446 46.8797C50.8651 46.3532 49.5832 45.8496 48.5988 45.3688C47.6373 44.8652 46.7903 44.1441 46.0578 43.2056C45.3481 42.2441 44.9933 40.9965 44.9933 39.4627C44.9933 37.9061 45.3825 36.5783 46.1608 35.4795C46.9391 34.3578 48.0151 33.5108 49.3886 32.9385C50.7621 32.3662 52.3187 32.0801 54.0585 32.0801C56.8742 32.0801 59.1176 32.744 60.7888 34.0717C62.4828 35.3765 63.387 37.2193 63.5014 39.6001H56.1875C56.1646 38.8675 55.9357 38.3181 55.5007 37.9519C55.0887 37.5856 54.5507 37.4025 53.8868 37.4025C53.3832 37.4025 52.9712 37.5513 52.6507 37.8489C52.3302 38.1464 52.1699 38.5699 52.1699 39.1194C52.1699 39.5772 52.3416 39.9778 52.685 40.3212C53.0513 40.6417 53.4977 40.9278 54.0242 41.1796C54.5507 41.4085 55.329 41.7061 56.3592 42.0724C57.8929 42.5989 59.152 43.1254 60.1363 43.652C61.1436 44.1556 62.002 44.8767 62.7117 45.8152C63.4442 46.7309 63.8105 47.8984 63.8105 49.3177C63.8105 50.7599 63.4442 52.0533 62.7117 53.1979C62.002 54.3425 60.9604 55.2467 59.5869 55.9106C58.2363 56.5744 56.6339 56.9064 54.7796 56.9064ZM85.8594 32.4578V37.8145H79.4039V56.666H72.6737V37.8145H66.2868V32.4578H85.8594ZM103.905 41.9694V47.5665H88.3495V41.9694H103.905ZM118.708 56.9064C115.893 56.9064 113.581 56.2425 111.772 54.9148C109.964 53.5642 108.991 51.6412 108.853 49.146H116.03C116.099 49.993 116.351 50.6111 116.786 51.0003C117.22 51.3894 117.781 51.584 118.468 51.584C119.086 51.584 119.59 51.4352 119.979 51.1376C120.391 50.8171 120.597 50.3822 120.597 49.8328C120.597 49.1231 120.265 48.5737 119.601 48.1846C118.937 47.7954 117.861 47.3604 116.373 46.8797C114.794 46.3532 113.512 45.8496 112.528 45.3688C111.566 44.8652 110.719 44.1441 109.987 43.2056C109.277 42.2441 108.922 40.9965 108.922 39.4627C108.922 37.9061 109.311 36.5783 110.09 35.4795C110.868 34.3578 111.944 33.5108 113.317 32.9385C114.691 32.3662 116.248 32.0801 117.987 32.0801C120.803 32.0801 123.046 32.744 124.718 34.0717C126.412 35.3765 127.316 37.2193 127.43 39.6001H120.116C120.093 38.8675 119.865 38.3181 119.43 37.9519C119.017 37.5856 118.48 37.4025 117.816 37.4025C117.312 37.4025 116.9 37.5513 116.58 37.8489C116.259 38.1464 116.099 38.5699 116.099 39.1194C116.099 39.5772 116.27 39.9778 116.614 40.3212C116.98 40.6417 117.427 40.9278 117.953 41.1796C118.48 41.4085 119.258 41.7061 120.288 42.0724C121.822 42.5989 123.081 43.1254 124.065 43.652C125.072 44.1556 125.931 44.8767 126.641 45.8152C127.373 46.7309 127.739 47.8984 127.739 49.3177C127.739 50.7599 127.373 52.0533 126.641 53.1979C125.931 54.3425 124.889 55.2467 123.516 55.9106C122.165 56.5744 120.563 56.9064 118.708 56.9064ZM138.285 37.8489V41.7977H146.011V46.9141H138.285V51.275H147.041V56.666H131.555V32.4578H147.041V37.8489H138.285ZM157.784 51.5153H165.304V56.666H151.054V32.4578H157.784V51.5153ZM175.338 51.5153H182.858V56.666H168.608V32.4578H175.338V51.5153ZM192.892 37.8489V41.7977H200.618V46.9141H192.892V51.275H201.648V56.666H186.161V32.4578H201.648V37.8489H192.892ZM217.919 56.666L213.112 47.7382H212.391V56.666H205.66V32.4578H216.271C218.217 32.4578 219.865 32.8012 221.215 33.4879C222.566 34.1518 223.585 35.0789 224.271 36.2693C224.958 37.4368 225.302 38.7531 225.302 40.2182C225.302 41.8664 224.844 43.32 223.928 44.5791C223.035 45.8152 221.719 46.6966 219.979 47.2231L225.439 56.666H217.919ZM212.391 43.1369H215.721C216.637 43.1369 217.324 42.9194 217.782 42.4845C218.239 42.0495 218.468 41.42 218.468 40.5959C218.468 39.8176 218.228 39.2109 217.747 38.776C217.289 38.3181 216.614 38.0892 215.721 38.0892H212.391V43.1369ZM12.0032 66.4578C14.5442 66.4578 16.7647 66.9729 18.6647 68.003C20.5877 69.0103 22.0642 70.4296 23.0943 72.2609C24.1245 74.0923 24.6395 76.1869 24.6395 78.5447C24.6395 80.8797 24.113 82.9629 23.06 84.7942C22.0299 86.6256 20.5533 88.0678 18.6304 89.1208C16.7304 90.1509 14.5213 90.666 12.0032 90.666H2.42292V66.4578H12.0032ZM11.4881 84.7256C13.4568 84.7256 15.002 84.1876 16.1237 83.1117C17.2454 82.0358 17.8063 80.5134 17.8063 78.5447C17.8063 76.5531 17.2454 75.0194 16.1237 73.9435C15.002 72.8446 13.4568 72.2952 11.4881 72.2952H9.15315V84.7256H11.4881ZM35.0903 71.8489V75.7977H42.8164V80.9141H35.0903V85.275H43.8465V90.666H28.3601V66.4578H43.8465V71.8489H35.0903ZM78.674 66.4578L70.3299 90.666H61.711L53.3326 66.4578H60.5436L66.0376 83.9358L71.4973 66.4578H78.674ZM88.188 71.8489V75.7977H95.914V80.9141H88.188V85.275H96.9441V90.666H81.4578V66.4578H96.9441V71.8489H88.188ZM113.215 90.666L108.408 81.7382H107.687V90.666H100.957V66.4578H111.567C113.513 66.4578 115.161 66.8012 116.512 67.4879C117.862 68.1518 118.881 69.0789 119.568 70.2693C120.254 71.4368 120.598 72.7531 120.598 74.2182C120.598 75.8664 120.14 77.32 119.224 78.5791C118.332 79.8152 117.015 80.6966 115.275 81.2231L120.735 90.666H113.215ZM107.687 77.1369H111.018C111.933 77.1369 112.62 76.9194 113.078 76.4845C113.536 76.0495 113.765 75.42 113.765 74.5959C113.765 73.8176 113.524 73.2109 113.044 72.776C112.586 72.3181 111.91 72.0892 111.018 72.0892H107.687V77.1369ZM133.926 66.4578C136.467 66.4578 138.687 66.9729 140.587 68.003C142.51 69.0103 143.987 70.4296 145.017 72.2609C146.047 74.0923 146.562 76.1869 146.562 78.5447C146.562 80.8797 146.035 82.9629 144.982 84.7942C143.952 86.6256 142.476 88.0678 140.553 89.1208C138.653 90.1509 136.444 90.666 133.926 90.666H124.345V66.4578H133.926ZM133.41 84.7256C135.379 84.7256 136.924 84.1876 138.046 83.1117C139.168 82.0358 139.729 80.5134 139.729 78.5447C139.729 76.5531 139.168 75.0194 138.046 73.9435C136.924 72.8446 135.379 72.2952 133.41 72.2952H131.075V84.7256H133.41ZM165.597 86.7172H157.013L155.708 90.666H148.634L157.459 66.4578H165.219L174.01 90.666H166.902L165.597 86.7172ZM163.915 81.5665L161.305 73.7374L158.73 81.5665H163.915ZM186.471 66.4578C189.012 66.4578 191.232 66.9729 193.132 68.003C195.055 69.0103 196.532 70.4296 197.562 72.2609C198.592 74.0923 199.107 76.1869 199.107 78.5447C199.107 80.8797 198.58 82.9629 197.527 84.7942C196.497 86.6256 195.021 88.0678 193.098 89.1208C191.198 90.1509 188.989 90.666 186.471 90.666H176.89V66.4578H186.471ZM185.955 84.7256C187.924 84.7256 189.469 84.1876 190.591 83.1117C191.713 82.0358 192.274 80.5134 192.274 78.5447C192.274 76.5531 191.713 75.0194 190.591 73.9435C189.469 72.8446 187.924 72.2952 185.955 72.2952H183.62V84.7256H185.955ZM209.558 71.8489V75.7977H217.284V80.9141H209.558V85.275H218.314V90.666H202.827V66.4578H218.314V71.8489H209.558Z" fill="#F7F7F5"></path><rect x="0.5" y="106.666" width="49.2969" height="7.80566" fill="#D6F503"></rect></svg>